<mxfile host="app.diagrams.net" modified="2021-12-01T01:18:27.501Z" agent="5.0 (Windows NT 10.0; Win64; x64) AppleWebKit/537.36 (KHTML, like Gecko) Chrome/96.0.4664.45 Safari/537.36" etag="VbsbHY0bmDqjNmf-xbCP" version="15.8.8" type="github">
  <diagram id="cecYlHEyMDC0JwaUcEuW" name="Page-1">
    <mxGraphModel dx="1447" dy="803" grid="1" gridSize="10" guides="1" tooltips="1" connect="1" arrows="1" fold="1" page="1" pageScale="1" pageWidth="850" pageHeight="1100" math="0" shadow="0">
      <root>
        <mxCell id="0" />
        <mxCell id="1" parent="0" />
        <mxCell id="PqI2TIs4CJn13hYe_ysx-1" value="" style="rounded=0;whiteSpace=wrap;html=1;" parent="1" vertex="1">
          <mxGeometry x="50" y="40" width="570" height="710" as="geometry" />
        </mxCell>
        <mxCell id="PqI2TIs4CJn13hYe_ysx-5" style="edgeStyle=orthogonalEdgeStyle;rounded=0;orthogonalLoop=1;jettySize=auto;html=1;exitX=0.5;exitY=1;exitDx=0;exitDy=0;entryX=0.5;entryY=0;entryDx=0;entryDy=0;" parent="1" source="PqI2TIs4CJn13hYe_ysx-2" target="PqI2TIs4CJn13hYe_ysx-4" edge="1">
          <mxGeometry relative="1" as="geometry" />
        </mxCell>
        <mxCell id="PqI2TIs4CJn13hYe_ysx-2" value="MULA" style="ellipse;whiteSpace=wrap;html=1;" parent="1" vertex="1">
          <mxGeometry x="120" y="70" width="100" height="40" as="geometry" />
        </mxCell>
        <mxCell id="PqI2TIs4CJn13hYe_ysx-7" style="edgeStyle=orthogonalEdgeStyle;rounded=0;orthogonalLoop=1;jettySize=auto;html=1;exitX=0.5;exitY=1;exitDx=0;exitDy=0;entryX=0.5;entryY=0;entryDx=0;entryDy=0;" parent="1" source="PqI2TIs4CJn13hYe_ysx-4" target="PqI2TIs4CJn13hYe_ysx-6" edge="1">
          <mxGeometry relative="1" as="geometry" />
        </mxCell>
        <mxCell id="PqI2TIs4CJn13hYe_ysx-4" value="PAPAR&lt;br&gt;Skrin untuk log masuk pengguna" style="shape=parallelogram;perimeter=parallelogramPerimeter;whiteSpace=wrap;html=1;fixedSize=1;" parent="1" vertex="1">
          <mxGeometry x="90" y="150" width="160" height="60" as="geometry" />
        </mxCell>
        <mxCell id="PqI2TIs4CJn13hYe_ysx-15" style="edgeStyle=orthogonalEdgeStyle;rounded=0;orthogonalLoop=1;jettySize=auto;html=1;exitX=1;exitY=0.5;exitDx=0;exitDy=0;entryX=0;entryY=0.5;entryDx=0;entryDy=0;" parent="1" source="PqI2TIs4CJn13hYe_ysx-6" target="PqI2TIs4CJn13hYe_ysx-8" edge="1">
          <mxGeometry relative="1" as="geometry" />
        </mxCell>
        <mxCell id="L7vm7nx6948erYDkiV52-2" style="edgeStyle=orthogonalEdgeStyle;rounded=0;orthogonalLoop=1;jettySize=auto;html=1;exitX=0.5;exitY=1;exitDx=0;exitDy=0;entryX=0.5;entryY=0;entryDx=0;entryDy=0;" edge="1" parent="1" source="PqI2TIs4CJn13hYe_ysx-6" target="L7vm7nx6948erYDkiV52-1">
          <mxGeometry relative="1" as="geometry" />
        </mxCell>
        <mxCell id="PqI2TIs4CJn13hYe_ysx-6" value="Pengguna&lt;br&gt;baharu?" style="rhombus;whiteSpace=wrap;html=1;" parent="1" vertex="1">
          <mxGeometry x="100" y="250" width="140" height="80" as="geometry" />
        </mxCell>
        <mxCell id="PqI2TIs4CJn13hYe_ysx-8" value="Daftar pengguna baharu" style="rounded=0;whiteSpace=wrap;html=1;" parent="1" vertex="1">
          <mxGeometry x="340" y="270" width="150" height="40" as="geometry" />
        </mxCell>
        <mxCell id="PqI2TIs4CJn13hYe_ysx-11" value="" style="endArrow=classic;html=1;rounded=0;exitX=0.5;exitY=0;exitDx=0;exitDy=0;" parent="1" source="PqI2TIs4CJn13hYe_ysx-8" edge="1">
          <mxGeometry width="50" height="50" relative="1" as="geometry">
            <mxPoint x="430" y="400" as="sourcePoint" />
            <mxPoint x="170" y="130" as="targetPoint" />
            <Array as="points">
              <mxPoint x="415" y="130" />
            </Array>
          </mxGeometry>
        </mxCell>
        <mxCell id="PqI2TIs4CJn13hYe_ysx-12" value="Ya" style="text;html=1;strokeColor=none;fillColor=none;align=center;verticalAlign=middle;whiteSpace=wrap;rounded=0;" parent="1" vertex="1">
          <mxGeometry x="240" y="260" width="60" height="30" as="geometry" />
        </mxCell>
        <mxCell id="L7vm7nx6948erYDkiV52-5" style="edgeStyle=orthogonalEdgeStyle;rounded=0;orthogonalLoop=1;jettySize=auto;html=1;exitX=0.5;exitY=1;exitDx=0;exitDy=0;entryX=0.5;entryY=0;entryDx=0;entryDy=0;" edge="1" parent="1" source="L7vm7nx6948erYDkiV52-1" target="L7vm7nx6948erYDkiV52-4">
          <mxGeometry relative="1" as="geometry" />
        </mxCell>
        <mxCell id="L7vm7nx6948erYDkiV52-1" value="MASUKKAN ID&lt;br&gt;pengguna dan kata laluan" style="shape=parallelogram;perimeter=parallelogramPerimeter;whiteSpace=wrap;html=1;fixedSize=1;" vertex="1" parent="1">
          <mxGeometry x="100" y="370" width="140" height="60" as="geometry" />
        </mxCell>
        <mxCell id="L7vm7nx6948erYDkiV52-3" value="Tidak" style="text;html=1;strokeColor=none;fillColor=none;align=center;verticalAlign=middle;whiteSpace=wrap;rounded=0;" vertex="1" parent="1">
          <mxGeometry x="170" y="330" width="60" height="30" as="geometry" />
        </mxCell>
        <mxCell id="L7vm7nx6948erYDkiV52-7" style="edgeStyle=orthogonalEdgeStyle;rounded=0;orthogonalLoop=1;jettySize=auto;html=1;exitX=1;exitY=0.5;exitDx=0;exitDy=0;entryX=0;entryY=0.5;entryDx=0;entryDy=0;" edge="1" parent="1" source="L7vm7nx6948erYDkiV52-4" target="L7vm7nx6948erYDkiV52-6">
          <mxGeometry relative="1" as="geometry" />
        </mxCell>
        <mxCell id="L7vm7nx6948erYDkiV52-12" style="edgeStyle=orthogonalEdgeStyle;rounded=0;orthogonalLoop=1;jettySize=auto;html=1;exitX=0.5;exitY=1;exitDx=0;exitDy=0;entryX=0.5;entryY=0;entryDx=0;entryDy=0;" edge="1" parent="1" source="L7vm7nx6948erYDkiV52-4" target="L7vm7nx6948erYDkiV52-11">
          <mxGeometry relative="1" as="geometry" />
        </mxCell>
        <mxCell id="L7vm7nx6948erYDkiV52-4" value="Akaun dijumpa&lt;br&gt;dalam sistem?" style="rhombus;whiteSpace=wrap;html=1;" vertex="1" parent="1">
          <mxGeometry x="100" y="470" width="140" height="70" as="geometry" />
        </mxCell>
        <mxCell id="L7vm7nx6948erYDkiV52-8" style="edgeStyle=orthogonalEdgeStyle;rounded=0;orthogonalLoop=1;jettySize=auto;html=1;exitX=1;exitY=0.5;exitDx=0;exitDy=0;" edge="1" parent="1" source="L7vm7nx6948erYDkiV52-6">
          <mxGeometry relative="1" as="geometry">
            <mxPoint x="415" y="130" as="targetPoint" />
            <Array as="points">
              <mxPoint x="570" y="505" />
              <mxPoint x="570" y="130" />
            </Array>
          </mxGeometry>
        </mxCell>
        <mxCell id="L7vm7nx6948erYDkiV52-6" value="PAPAR &quot;Kesalahan pada username atau password&quot;" style="shape=parallelogram;perimeter=parallelogramPerimeter;whiteSpace=wrap;html=1;fixedSize=1;" vertex="1" parent="1">
          <mxGeometry x="320" y="475" width="190" height="60" as="geometry" />
        </mxCell>
        <mxCell id="L7vm7nx6948erYDkiV52-9" value="Tidak" style="text;html=1;strokeColor=none;fillColor=none;align=center;verticalAlign=middle;whiteSpace=wrap;rounded=0;" vertex="1" parent="1">
          <mxGeometry x="240" y="475" width="60" height="30" as="geometry" />
        </mxCell>
        <mxCell id="L7vm7nx6948erYDkiV52-14" style="edgeStyle=orthogonalEdgeStyle;rounded=0;orthogonalLoop=1;jettySize=auto;html=1;exitX=0.5;exitY=1;exitDx=0;exitDy=0;entryX=0.5;entryY=0;entryDx=0;entryDy=0;" edge="1" parent="1" source="L7vm7nx6948erYDkiV52-11" target="L7vm7nx6948erYDkiV52-13">
          <mxGeometry relative="1" as="geometry" />
        </mxCell>
        <mxCell id="L7vm7nx6948erYDkiV52-11" value="PAPAR&lt;br&gt;&quot;Anda telah log masuk&quot;" style="shape=parallelogram;perimeter=parallelogramPerimeter;whiteSpace=wrap;html=1;fixedSize=1;" vertex="1" parent="1">
          <mxGeometry x="110" y="580" width="120" height="60" as="geometry" />
        </mxCell>
        <mxCell id="L7vm7nx6948erYDkiV52-13" value="" style="ellipse;whiteSpace=wrap;html=1;aspect=fixed;" vertex="1" parent="1">
          <mxGeometry x="150" y="680" width="40" height="40" as="geometry" />
        </mxCell>
      </root>
    </mxGraphModel>
  </diagram>
</mxfile>
